inDegrees=no
num_controls=7
num_derivatives=13
num_iterations=51
num_multipliers=7
num_parameters=0
num_slacks=7
num_states=26
objective=0.431905
objective_accelerations=0.054078
objective_balance=0.007003
objective_effort=0.033084
objective_height=0.336627
objective_ligament=0.001113
solver_duration=821.582357
status=Solve_Succeeded
success=true
DataType=double
version=3
OpenSimVersion=4.5
endheader
time	/jointset/ground_pelvis/pelvis_tilt/value	/jointset/ground_pelvis/pelvis_tx/value	/jointset/ground_pelvis/pelvis_ty/value	/jointset/hip_l/hip_flexion_l/value	/jointset/hip_l/hip_adduction_l/value	/jointset/hip_l/hip_rotation_l/value	/jointset/back/lumbar_extension/value	/jointset/patellofemoral_l/patellar_flexion_l/value	/jointset/knee_l/knee_flexion_l/value	/jointset/knee_l/knee_adduction_l/value	/jointset/knee_l/knee_rotation_l/value	/jointset/ankle_l/ankle_angle_l/value	/jointset/subtalar_l/subtalar_angle_l/value	/jointset/ground_pelvis/pelvis_tilt/speed	/jointset/ground_pelvis/pelvis_tx/speed	/jointset/ground_pelvis/pelvis_ty/speed	/jointset/hip_l/hip_flexion_l/speed	/jointset/hip_l/hip_adduction_l/speed	/jointset/hip_l/hip_rotation_l/speed	/jointset/back/lumbar_extension/speed	/jointset/patellofemoral_l/patellar_flexion_l/speed	/jointset/knee_l/knee_flexion_l/speed	/jointset/knee_l/knee_adduction_l/speed	/jointset/knee_l/knee_rotation_l/speed	/jointset/ankle_l/ankle_angle_l/speed	/jointset/subtalar_l/subtalar_angle_l/speed	/forceset/tau_hip_flexion_l	/forceset/tau_hip_adduction_l	/forceset/tau_hip_rotation_l	/forceset/tau_knee_flexion_l	/forceset/tau_ankle_angle_l	/forceset/tau_subtalar_angle_l	/forceset/tau_lumbar_extension	lambda_cid13_p0	lambda_cid13_p1	lambda_cid13_p2	lambda_cid13_p3	lambda_cid13_p4	lambda_cid13_p5	lambda_cid14_p0	/jointset/ground_pelvis/pelvis_tilt/accel	/jointset/ground_pelvis/pelvis_tx/accel	/jointset/ground_pelvis/pelvis_ty/accel	/jointset/hip_l/hip_flexion_l/accel	/jointset/hip_l/hip_adduction_l/accel	/jointset/hip_l/hip_rotation_l/accel	/jointset/back/lumbar_extension/accel	/jointset/patellofemoral_l/patellar_flexion_l/accel	/jointset/knee_l/knee_flexion_l/accel	/jointset/knee_l/knee_adduction_l/accel	/jointset/knee_l/knee_rotation_l/accel	/jointset/ankle_l/ankle_angle_l/accel	/jointset/subtalar_l/subtalar_angle_l/accel	gamma_cid13_p0	gamma_cid13_p1	gamma_cid13_p2	gamma_cid13_p3	gamma_cid13_p4	gamma_cid13_p5	gamma_cid14_p0
0	-0.1572972026541818	0.05750695776619076	0.8979036062547536	0.3774924667018715	-0.2605022189307845	-0.249482034527356	-0.01265067647494873	0.03223648243721174	0.03223648243721463	-0.1745326686291113	0.1521159210744278	-0.04231377076293093	-0.01090056146498875	0	0	0	0	0	0	0	0	0	0	0	0	0	0.1064141662358699	-0.007823250272319856	-0.03899844627797511	-0.2440658405389161	0.2451836605261623	-0.08088386170298482	-0.06097676995899167	35.59967455704849	22.09058871959469	3.847572599276927	5.111084724004277	-585.8476080080267	-25.46740851975621	-38.39050322871453	-2.522124032005453	-1.893513390543578	-1.017400180200915	11.53595389184038	-1.369444250829789	3.607920325476991	-5.34931449990482	11.27888262393065	11.27888262396959	0.1839504384250864	0.3132758499077489	2.502703243035488	-0.8213708619919117	2.393376813907557e-08	2.612033672077777e-07	-3.1762756232906e-08	-5.503431455209958e-08	2.616696421103468e-07	1.52377787462779e-07	1.424612670683394e-08
0.01	-0.157420689048581	0.05741739237480697	0.8978540865763449	0.3780522745359854	-0.2605707219913235	-0.2493021251001282	-0.01291981723404284	0.0327869423848346	0.03278694238482896	-0.1745265974912201	0.1521278493400799	-0.04218806800515209	-0.01094149758966759	-0.02489714013664628	-0.0174349450180671	-0.009857030878849012	0.1112361267533052	-0.01368064242606374	0.0358246119791943	-0.05352498672812902	0.1095079694490124	0.1095079694491091	0.001078086732683509	0.002365672457653325	0.02547237958687503	-0.008089874757078584	0.121479583471429	-0.021336770759708	-0.04383495628937917	-0.2779330516048054	0.2989336646581054	-0.08408245350833325	-0.06976240051629291	52.80867689353846	20.9450714915512	3.483627884630816	-10.36004048302732	-588.5842328430175	-30.01563040687907	-38.40679388626755	-2.503500864780965	-1.596776075496136	-0.96276648740835	10.80861870207729	-1.364408737915051	3.54615516671655	-5.308615995472824	10.69914824498681	10.69914824497704	0.04935072786308187	0.1952342828606023	2.619284734590992	-0.7882311164399635	-5.609786986844061e-08	1.810931408230227e-07	1.230372974448083e-07	1.48894108141296e-08	-2.998330538544073e-08	2.475266450469511e-08	-1.705575031527548e-08
0.02	-0.1577991452164101	0.05716781932963106	0.8977074142000113	0.3797026789646197	-0.2607754383760051	-0.2487686848465893	-0.01371511290766386	0.03441496085485449	0.03441496085485507	-0.174513822898503	0.1521628385981539	-0.04179768556788781	-0.01106041952869231	-0.05099395468474093	-0.03200153075842441	-0.01943053958499556	0.2181193189066905	-0.02724266482894677	0.07070616526142139	-0.1052309829044885	0.2155117044820315	0.2155117044820303	0.001340690952274372	0.004612198481964857	0.05293593589684392	-0.01559716286913172	0.1365450007068832	-0.03485029124711152	-0.0486714663007224	-0.3118002626707614	0.3526836687900252	-0.08728104531370322	-0.07854803107366634	70.11141752968055	19.78520634182631	3.119617101665989	-26.05881936702122	-589.9710315195991	-34.43036117924271	-38.45449114493725	-2.762058914295122	-1.319841535001619	-0.9606957456604367	10.66536697185635	-1.345720246193854	3.419308586083541	-4.985516389550861	10.57803574073196	10.57803574073201	0.02085393580615191	0.2894465632394115	2.900938587654196	-0.7048535329870386	-1.361295078759568e-07	1.009829144382677e-07	2.778373511225226e-07	8.481313618035878e-08	-3.216362528812282e-07	-1.028724584533888e-07	-4.835762733738491e-08
0.03	-0.1584404113649374	0.0567819995878747	0.8974660220767136	0.382403148609461	-0.2611139821944499	-0.2478912892914865	-0.01501714473630898	0.03708714110152501	0.03708714110151209	-0.1745001707922839	0.1522200591217044	-0.04112790370814794	-0.01125159920615377	-0.07701858340420514	-0.04517514437720123	-0.02883536617780894	0.3215088796881848	-0.04032687517631913	0.1046044568472325	-0.1547743406259443	0.3184861310783374	0.3184861310783033	0.001485780118106058	0.006838383509727665	0.08082899031333797	-0.02255234349638985	0.125611377834101	-0.02854838322607258	-0.04625812830568075	-0.2959989721055842	0.3296376257373875	-0.08451644437710605	-0.0705140510474105	62.7883660500089	19.69645559541236	3.328284984398687	-20.82226326242576	-589.8116018158257	-33.09304858787595	-38.53158145636534	-2.486571088232903	-1.318013047814202	-0.9285637872504792	10.10587421010343	-1.268928104801846	3.349774618917063	-4.878589133489256	10.09142385123157	10.09142385122609	0.02579259681358937	0.1901362725088262	2.704761818309499	-0.6779322529695484	-1.499805445452414e-07	1.490409364816748e-07	2.709443220575878e-07	1.024321049347489e-07	-4.174196889950733e-07	-5.895268235070558e-08	-4.613834116038855e-08
0.04	-0.1593347050481606	0.05626406535543096	0.8971309441532554	0.38612353857787	-0.2615791994515281	-0.2466799737857106	-0.01680257887618284	0.04077592116057145	0.04077592116057342	-0.1744821765564414	0.1522997278555603	-0.0401849367143127	-0.01150974707496295	-0.1015994616220837	-0.05842442889589799	-0.03816769961709036	0.4221033836219808	-0.05257735255542108	0.1374901553965263	-0.2019114451492485	0.4188316669607062	0.4188316669606156	0.002209116877610998	0.009101840536053497	0.1075729627163279	-0.02899080113862518	0.1146777549613003	-0.02224647520499731	-0.04384479031049011	-0.2801976815404263	0.3065915826847618	-0.08175184344047279	-0.06248007102118915	55.55185112693253	19.59982220917966	3.529911256227499	-15.81299206086754	-588.4203143772089	-31.62946422067945	-38.63632609999991	-2.47330881397796	-1.334975714985601	-0.9461971149540531	10.10635560231667	-1.178973652539893	3.216789978780077	-4.504265749920513	10.05225759794453	10.05225759793987	0.1365034545405607	0.2969009629520259	2.671122184953337	-0.6015089359826086	-1.624670327333254e-07	1.997416028225699e-07	2.607174149979591e-07	1.189726250992042e-07	-5.091645784824866e-07	-1.149589801996529e-08	-4.322789697928691e-08
0.05	-0.160469191823729	0.05561416281655867	0.8967026237249802	0.3908365831273344	-0.2621629949792796	-0.2451446557515826	-0.01904805867354022	0.04545511647869067	0.04545511647868779	-0.1744548650345231	0.1524021291862425	-0.03897929041079379	-0.01182974775121444	-0.1251699375728833	-0.07147513762249001	-0.04750312827217285	0.5200092031452256	-0.06407421297082037	0.1694313508179929	-0.2469022379746219	0.5165058110011143	0.5165058110012245	0.003242398660158526	0.01134693305551989	0.1334354285999417	-0.03494138229748128	0.1098828271579473	-0.02052902662575568	-0.04314612454660111	-0.2767468667862067	0.3015201010967608	-0.08029336684299049	-0.05856776795167669	54.05233966383018	19.22561954585506	3.593382627174332	-15.32653868873124	-587.6346265571785	-31.5277419035435	-38.76627064907017	-2.279732424359604	-1.277953334882829	-0.9283296502161614	9.558227242186026	-1.118950991687005	3.161433831684944	-4.454144596598621	9.549763580075066	9.549763580107605	0.08517965157268416	0.1835564993871803	2.525667054734329	-0.5816992443841007	-1.841224313071161e-07	2.080514295785136e-07	3.008338747504867e-07	1.378785285532264e-07	-5.980001354976411e-07	-1.716632303729269e-08	-4.998217258826497e-08
